<svg width="300" height="200" version="1.1" xmlns="http://www.w3.org/2000/svg">
      <rect width="100%" height="100%" fill="#dddddd" />
      <rect width="100%" height="100%" fill="transparent" stroke="#000000" stroke-width="3" />
  <circle cx="150" cy="55" r="45" fill="#669999" />
<circle cx="153" cy="55" r="45" fill="#669999" />
<circle cx="157" cy="56" r="44" fill="#679999" />
<circle cx="160" cy="57" r="44" fill="#679A9A" />
<circle cx="163" cy="58" r="44" fill="#679A9A" />
<circle cx="166" cy="60" r="43" fill="#689A9A" />
<circle cx="169" cy="61" r="43" fill="#689A9A" />
<circle cx="172" cy="63" r="43" fill="#689A9A" />
<circle cx="174" cy="65" r="43" fill="#689B9B" />
<circle cx="177" cy="67" r="42" fill="#699B9B" />
<circle cx="179" cy="69" r="42" fill="#699B9B" />
<circle cx="181" cy="72" r="42" fill="#699B9B" />
<circle cx="183" cy="74" r="41" fill="#6A9B9B" />
<circle cx="184" cy="77" r="41" fill="#6A9C9C" />
<circle cx="185" cy="80" r="41" fill="#6A9C9C" />
<circle cx="187" cy="83" r="41" fill="#6B9C9C" />
<circle cx="188" cy="86" r="40" fill="#6B9C9C" />
<circle cx="188" cy="89" r="40" fill="#6B9C9C" />
<circle cx="189" cy="92" r="40" fill="#6C9D9D" />
<circle cx="189" cy="95" r="39" fill="#6C9D9D" />
<circle cx="189" cy="98" r="39" fill="#6C9D9D" />
<circle cx="189" cy="100" r="39" fill="#6C9D9D" />
<circle cx="188" cy="103" r="39" fill="#6D9D9D" />
<circle cx="188" cy="106" r="38" fill="#6D9E9E" />
<circle cx="187" cy="109" r="38" fill="#6D9E9E" />
<circle cx="186" cy="112" r="38" fill="#6E9E9E" />
<circle cx="185" cy="114" r="38" fill="#6E9E9E" />
<circle cx="183" cy="117" r="37" fill="#6E9F9F" />
<circle cx="182" cy="119" r="37" fill="#6F9F9F" />
<circle cx="180" cy="121" r="37" fill="#6F9F9F" />
<circle cx="178" cy="123" r="36" fill="#6F9F9F" />
<circle cx="176" cy="125" r="36" fill="#709F9F" />
<circle cx="174" cy="127" r="36" fill="#70A0A0" />
<circle cx="172" cy="128" r="36" fill="#70A0A0" />
<circle cx="169" cy="130" r="35" fill="#70A0A0" />
<circle cx="167" cy="131" r="35" fill="#71A0A0" />
<circle cx="165" cy="132" r="35" fill="#71A0A0" />
<circle cx="162" cy="133" r="35" fill="#71A1A1" />
<circle cx="159" cy="133" r="34" fill="#72A1A1" />
<circle cx="157" cy="134" r="34" fill="#72A1A1" />
<circle cx="154" cy="134" r="34" fill="#72A1A1" />
<circle cx="152" cy="134" r="34" fill="#73A1A1" />
<circle cx="149" cy="134" r="34" fill="#73A2A2" />
<circle cx="147" cy="133" r="33" fill="#73A2A2" />
<circle cx="144" cy="133" r="33" fill="#73A2A2" />
<circle cx="142" cy="132" r="33" fill="#74A2A2" />
<circle cx="140" cy="131" r="33" fill="#74A2A2" />
<circle cx="137" cy="130" r="32" fill="#74A3A3" />
<circle cx="135" cy="129" r="32" fill="#75A3A3" />
<circle cx="133" cy="127" r="32" fill="#75A3A3" />
<circle cx="131" cy="126" r="32" fill="#75A3A3" />
<circle cx="130" cy="124" r="31" fill="#76A3A3" />
<circle cx="128" cy="122" r="31" fill="#76A4A4" />
<circle cx="127" cy="120" r="31" fill="#76A4A4" />
<circle cx="125" cy="118" r="31" fill="#77A4A4" />
<circle cx="124" cy="116" r="31" fill="#77A4A4" />
<circle cx="123" cy="114" r="30" fill="#77A4A4" />
<circle cx="122" cy="112" r="30" fill="#77A5A5" />
<circle cx="122" cy="110" r="30" fill="#78A5A5" />
<circle cx="121" cy="108" r="30" fill="#78A5A5" />
<circle cx="121" cy="106" r="30" fill="#78A5A5" />
<circle cx="121" cy="103" r="29" fill="#79A5A5" />
<circle cx="121" cy="101" r="29" fill="#79A6A6" />
<circle cx="121" cy="99" r="29" fill="#79A6A6" />
<circle cx="121" cy="97" r="29" fill="#7AA6A6" />
<circle cx="122" cy="95" r="29" fill="#7AA6A6" />
<circle cx="123" cy="93" r="28" fill="#7AA6A6" />
<circle cx="123" cy="91" r="28" fill="#7BA7A7" />
<circle cx="124" cy="89" r="28" fill="#7BA7A7" />
<circle cx="125" cy="87" r="28" fill="#7BA7A7" />
<circle cx="127" cy="85" r="28" fill="#7BA7A7" />
<circle cx="128" cy="84" r="27" fill="#7CA8A8" />
<circle cx="129" cy="82" r="27" fill="#7CA8A8" />
<circle cx="131" cy="81" r="27" fill="#7CA8A8" />
<circle cx="133" cy="80" r="27" fill="#7DA8A8" />
<circle cx="134" cy="79" r="27" fill="#7DA8A8" />
<circle cx="136" cy="78" r="26" fill="#7DA9A9" />
<circle cx="138" cy="77" r="26" fill="#7EA9A9" />
<circle cx="140" cy="76" r="26" fill="#7EA9A9" />
<circle cx="142" cy="76" r="26" fill="#7EA9A9" />
<circle cx="144" cy="75" r="26" fill="#7FA9A9" />
<circle cx="145" cy="75" r="26" fill="#7FAAAA" />
<circle cx="147" cy="75" r="25" fill="#7FAAAA" />
<circle cx="149" cy="75" r="25" fill="#7FAAAA" />
<circle cx="151" cy="75" r="25" fill="#80AAAA" />
<circle cx="153" cy="75" r="25" fill="#80AAAA" />
<circle cx="155" cy="76" r="25" fill="#80ABAB" />
<circle cx="157" cy="76" r="24" fill="#81ABAB" />
<circle cx="158" cy="77" r="24" fill="#81ABAB" />
<circle cx="160" cy="78" r="24" fill="#81ABAB" />
<circle cx="161" cy="79" r="24" fill="#82ABAB" />
<circle cx="163" cy="80" r="24" fill="#82ACAC" />
<circle cx="164" cy="81" r="24" fill="#82ACAC" />
<circle cx="166" cy="82" r="23" fill="#83ACAC" />
<circle cx="167" cy="84" r="23" fill="#83ACAC" />
<circle cx="168" cy="85" r="23" fill="#83ACAC" />
<circle cx="169" cy="87" r="23" fill="#83ADAD" />
<circle cx="170" cy="88" r="23" fill="#84ADAD" />
<circle cx="170" cy="90" r="23" fill="#84ADAD" />
<circle cx="171" cy="91" r="23" fill="#84ADAD" />
<circle cx="171" cy="93" r="22" fill="#85ADAD" />
<circle cx="172" cy="95" r="22" fill="#85AEAE" />
<circle cx="172" cy="96" r="22" fill="#85AEAE" />
<circle cx="172" cy="98" r="22" fill="#86AEAE" />
<circle cx="172" cy="100" r="22" fill="#86AEAE" />
<circle cx="172" cy="101" r="22" fill="#86AEAE" />
<circle cx="171" cy="103" r="21" fill="#87AFAF" />
<circle cx="171" cy="104" r="21" fill="#87AFAF" />
<circle cx="170" cy="106" r="21" fill="#87AFAF" />
<circle cx="170" cy="107" r="21" fill="#87AFAF" />
<circle cx="169" cy="109" r="21" fill="#88AFAF" />
<circle cx="168" cy="110" r="21" fill="#88B0B0" />
<circle cx="167" cy="111" r="21" fill="#88B0B0" />
<circle cx="166" cy="113" r="20" fill="#89B0B0" />
<circle cx="165" cy="114" r="20" fill="#89B0B0" />
<circle cx="164" cy="115" r="20" fill="#89B1B1" />
<circle cx="163" cy="115" r="20" fill="#8AB1B1" />
<circle cx="161" cy="116" r="20" fill="#8AB1B1" />
<circle cx="160" cy="117" r="20" fill="#8AB1B1" />
<circle cx="159" cy="118" r="20" fill="#8AB1B1" />
<circle cx="157" cy="118" r="19" fill="#8BB2B2" />
<circle cx="156" cy="118" r="19" fill="#8BB2B2" />
<circle cx="154" cy="119" r="19" fill="#8BB2B2" />
<circle cx="153" cy="119" r="19" fill="#8CB2B2" />
<circle cx="152" cy="119" r="19" fill="#8CB2B2" />
<circle cx="150" cy="119" r="19" fill="#8CB3B3" />
<circle cx="149" cy="119" r="19" fill="#8DB3B3" />
<circle cx="147" cy="118" r="18" fill="#8DB3B3" />
<circle cx="146" cy="118" r="18" fill="#8DB3B3" />
<circle cx="145" cy="117" r="18" fill="#8EB3B3" />
<circle cx="143" cy="117" r="18" fill="#8EB4B4" />
<circle cx="142" cy="116" r="18" fill="#8EB4B4" />
<circle cx="141" cy="115" r="18" fill="#8EB4B4" />
<circle cx="140" cy="115" r="18" fill="#8FB4B4" />
<circle cx="139" cy="114" r="18" fill="#8FB4B4" />
<circle cx="138" cy="113" r="17" fill="#8FB5B5" />
<circle cx="137" cy="112" r="17" fill="#90B5B5" />
<circle cx="136" cy="111" r="17" fill="#90B5B5" />
<circle cx="136" cy="110" r="17" fill="#90B5B5" />
<circle cx="135" cy="108" r="17" fill="#91B5B5" />
<circle cx="135" cy="107" r="17" fill="#91B6B6" />
<circle cx="134" cy="106" r="17" fill="#91B6B6" />
<circle cx="134" cy="105" r="17" fill="#92B6B6" />
<circle cx="134" cy="104" r="17" fill="#92B6B6" />
<circle cx="134" cy="102" r="16" fill="#92B6B6" />
<circle cx="134" cy="101" r="16" fill="#92B7B7" />
<circle cx="134" cy="100" r="16" fill="#93B7B7" />
<circle cx="134" cy="99" r="16" fill="#93B7B7" />
<circle cx="134" cy="97" r="16" fill="#93B7B7" />
<circle cx="135" cy="96" r="16" fill="#94B7B7" />
<circle cx="135" cy="95" r="16" fill="#94B8B8" />
<circle cx="136" cy="94" r="16" fill="#94B8B8" />
<circle cx="136" cy="93" r="16" fill="#95B8B8" />
<circle cx="137" cy="92" r="15" fill="#95B8B8" />
<circle cx="137" cy="91" r="15" fill="#95B8B8" />
<circle cx="138" cy="90" r="15" fill="#96B9B9" />
<circle cx="139" cy="90" r="15" fill="#96B9B9" />
<circle cx="140" cy="89" r="15" fill="#96B9B9" />
<circle cx="141" cy="88" r="15" fill="#96B9B9" />
<circle cx="142" cy="88" r="15" fill="#97BABA" />
<circle cx="143" cy="87" r="15" fill="#97BABA" />
<circle cx="144" cy="87" r="15" fill="#97BABA" />
<circle cx="145" cy="86" r="14" fill="#98BABA" />
<circle cx="146" cy="86" r="14" fill="#98BABA" />
<circle cx="147" cy="86" r="14" fill="#98BBBB" />
<circle cx="148" cy="86" r="14" fill="#99BBBB" />
<circle cx="149" cy="86" r="14" fill="#99BBBB" />
<circle cx="150" cy="86" r="14" fill="#99BBBB" />
<circle cx="151" cy="86" r="14" fill="#9ABBBB" />
<circle cx="152" cy="86" r="14" fill="#9ABCBC" />
<circle cx="153" cy="87" r="14" fill="#9ABCBC" />
<circle cx="154" cy="87" r="14" fill="#9ABCBC" />
<circle cx="155" cy="88" r="13" fill="#9BBCBC" />
<circle cx="156" cy="88" r="13" fill="#9BBCBC" />
<circle cx="157" cy="89" r="13" fill="#9BBDBD" />
<circle cx="158" cy="89" r="13" fill="#9CBDBD" />
<circle cx="158" cy="90" r="13" fill="#9CBDBD" />
<circle cx="159" cy="91" r="13" fill="#9CBDBD" />
<circle cx="160" cy="91" r="13" fill="#9DBDBD" />
<circle cx="160" cy="92" r="13" fill="#9DBEBE" />
<circle cx="161" cy="93" r="13" fill="#9DBEBE" />
<circle cx="161" cy="94" r="13" fill="#9DBEBE" />
<circle cx="161" cy="95" r="13" fill="#9EBEBE" />
<circle cx="162" cy="96" r="12" fill="#9EBEBE" />
<circle cx="162" cy="97" r="12" fill="#9EBFBF" />
<circle cx="162" cy="98" r="12" fill="#9FBFBF" />
<circle cx="162" cy="99" r="12" fill="#9FBFBF" />
<circle cx="162" cy="99" r="12" fill="#9FBFBF" />
<circle cx="162" cy="100" r="12" fill="#A0BFBF" />
<circle cx="162" cy="101" r="12" fill="#A0C0C0" />
<circle cx="162" cy="102" r="12" fill="#A0C0C0" />
<circle cx="161" cy="103" r="12" fill="#A1C0C0" />
<circle cx="161" cy="104" r="12" fill="#A1C0C0" />
<circle cx="161" cy="105" r="12" fill="#A1C0C0" />
<circle cx="160" cy="105" r="12" fill="#A1C1C1" />
<circle cx="160" cy="106" r="11" fill="#A2C1C1" />
<circle cx="159" cy="107" r="11" fill="#A2C1C1" />
<circle cx="159" cy="107" r="11" fill="#A2C1C1" />
<circle cx="158" cy="108" r="11" fill="#A3C1C1" />
<circle cx="157" cy="108" r="11" fill="#A3C2C2" />
<circle cx="157" cy="109" r="11" fill="#A3C2C2" />
<circle cx="156" cy="109" r="11" fill="#A4C2C2" />
<circle cx="155" cy="110" r="11" fill="#A4C2C2" />
<circle cx="154" cy="110" r="11" fill="#A4C2C2" />
<circle cx="154" cy="110" r="11" fill="#A5C3C3" />
<circle cx="153" cy="110" r="11" fill="#A5C3C3" />
<circle cx="152" cy="110" r="11" fill="#A5C3C3" />
<circle cx="151" cy="111" r="11" fill="#A5C3C3" />
<circle cx="150" cy="110" r="10" fill="#A6C4C4" />
<circle cx="150" cy="110" r="10" fill="#A6C4C4" />
<circle cx="149" cy="110" r="10" fill="#A6C4C4" />
<circle cx="148" cy="110" r="10" fill="#A7C4C4" />
<circle cx="147" cy="110" r="10" fill="#A7C4C4" />
<circle cx="147" cy="110" r="10" fill="#A7C5C5" />
<circle cx="146" cy="109" r="10" fill="#A8C5C5" />
<circle cx="145" cy="109" r="10" fill="#A8C5C5" />
<circle cx="145" cy="108" r="10" fill="#A8C5C5" />
<circle cx="144" cy="108" r="10" fill="#A9C5C5" />
<circle cx="144" cy="107" r="10" fill="#A9C6C6" />
<circle cx="143" cy="107" r="10" fill="#A9C6C6" />
<circle cx="143" cy="106" r="10" fill="#A9C6C6" />
<circle cx="142" cy="106" r="10" fill="#AAC6C6" />
<circle cx="142" cy="105" r="10" fill="#AAC6C6" />
<circle cx="142" cy="104" r="9" fill="#AAC7C7" />
<circle cx="141" cy="104" r="9" fill="#ABC7C7" />
<circle cx="141" cy="103" r="9" fill="#ABC7C7" />
<circle cx="141" cy="102" r="9" fill="#ABC7C7" />
<circle cx="141" cy="102" r="9" fill="#ACC7C7" />
<circle cx="141" cy="101" r="9" fill="#ACC8C8" />
<circle cx="141" cy="100" r="9" fill="#ACC8C8" />
<circle cx="141" cy="100" r="9" fill="#ADC8C8" />
<circle cx="141" cy="99" r="9" fill="#ADC8C8" />
<circle cx="141" cy="98" r="9" fill="#ADC8C8" />
<circle cx="142" cy="98" r="9" fill="#ADC9C9" />
<circle cx="142" cy="97" r="9" fill="#AEC9C9" />
<circle cx="142" cy="96" r="9" fill="#AEC9C9" />
<circle cx="142" cy="96" r="9" fill="#AEC9C9" />
<circle cx="143" cy="95" r="9" fill="#AFC9C9" />
<circle cx="143" cy="95" r="9" fill="#AFCACA" />
<circle cx="144" cy="94" r="8" fill="#AFCACA" />
<circle cx="144" cy="94" r="8" fill="#B0CACA" />
<circle cx="145" cy="94" r="8" fill="#B0CACA" />
<circle cx="145" cy="93" r="8" fill="#B0CACA" />
<circle cx="146" cy="93" r="8" fill="#B1CBCB" />
<circle cx="146" cy="93" r="8" fill="#B1CBCB" />
<circle cx="147" cy="92" r="8" fill="#B1CBCB" />
<circle cx="148" cy="92" r="8" fill="#B1CBCB" />
<circle cx="148" cy="92" r="8" fill="#B2CBCB" />
<circle cx="149" cy="92" r="8" fill="#B2CCCC" />
<circle cx="149" cy="92" r="8" fill="#B2CCCC" />
<circle cx="150" cy="92" r="8" fill="#B3CCCC" />
<circle cx="151" cy="92" r="8" fill="#B3CCCC" />
<circle cx="151" cy="92" r="8" fill="#B3CDCD" />
<circle cx="152" cy="93" r="8" fill="#B4CDCD" />
<circle cx="152" cy="93" r="8" fill="#B4CDCD" />
<circle cx="153" cy="93" r="8" fill="#B4CDCD" />
<circle cx="153" cy="93" r="7" fill="#B4CDCD" />
<circle cx="154" cy="94" r="7" fill="#B5CECE" />
<circle cx="154" cy="94" r="7" fill="#B5CECE" />
<circle cx="155" cy="94" r="7" fill="#B5CECE" />
<circle cx="155" cy="95" r="7" fill="#B6CECE" />
<circle cx="155" cy="95" r="7" fill="#B6CECE" />
<circle cx="156" cy="96" r="7" fill="#B6CFCF" />
<circle cx="156" cy="96" r="7" fill="#B7CFCF" />
<circle cx="156" cy="96" r="7" fill="#B7CFCF" />
<circle cx="156" cy="97" r="7" fill="#B7CFCF" />
<circle cx="157" cy="97" r="7" fill="#B8CFCF" />
<circle cx="157" cy="98" r="7" fill="#B8D0D0" />
<circle cx="157" cy="98" r="7" fill="#B8D0D0" />
<circle cx="157" cy="99" r="7" fill="#B8D0D0" />
<circle cx="157" cy="100" r="7" fill="#B9D0D0" />
<circle cx="157" cy="100" r="7" fill="#B9D0D0" />
<circle cx="157" cy="101" r="7" fill="#B9D1D1" />
<circle cx="157" cy="101" r="7" fill="#BAD1D1" />
<circle cx="156" cy="101" r="7" fill="#BAD1D1" />
<circle cx="156" cy="102" r="7" fill="#BAD1D1" />
<circle cx="156" cy="102" r="7" fill="#BBD1D1" />
<circle cx="156" cy="103" r="6" fill="#BBD2D2" />
<circle cx="156" cy="103" r="6" fill="#BBD2D2" />
<circle cx="155" cy="104" r="6" fill="#BCD2D2" />
<circle cx="155" cy="104" r="6" fill="#BCD2D2" />
<circle cx="155" cy="104" r="6" fill="#BCD2D2" />
<circle cx="154" cy="105" r="6" fill="#BCD3D3" />
<circle cx="154" cy="105" r="6" fill="#BDD3D3" />
<circle cx="153" cy="105" r="6" fill="#BDD3D3" />
<circle cx="153" cy="105" r="6" fill="#BDD3D3" />
<circle cx="153" cy="106" r="6" fill="#BED3D3" />
<circle cx="152" cy="106" r="6" fill="#BED4D4" />
<circle cx="152" cy="106" r="6" fill="#BED4D4" />
<circle cx="151" cy="106" r="6" fill="#BFD4D4" />
<circle cx="151" cy="106" r="6" fill="#BFD4D4" />
<circle cx="150" cy="106" r="6" fill="#BFD4D4" />
<circle cx="150" cy="106" r="6" fill="#C0D5D5" />
<circle cx="149" cy="106" r="6" fill="#C0D5D5" />
<circle cx="149" cy="106" r="6" fill="#C0D5D5" />
<circle cx="149" cy="106" r="6" fill="#C0D5D5" />
<circle cx="148" cy="105" r="6" fill="#C1D6D6" />
<circle cx="148" cy="105" r="6" fill="#C1D6D6" />
<circle cx="147" cy="105" r="6" fill="#C1D6D6" />
<circle cx="147" cy="105" r="6" fill="#C2D6D6" />
<circle cx="147" cy="104" r="6" fill="#C2D6D6" />
<circle cx="147" cy="104" r="5" fill="#C2D7D7" />
<circle cx="146" cy="104" r="5" fill="#C3D7D7" />
<circle cx="146" cy="104" r="5" fill="#C3D7D7" />
<circle cx="146" cy="103" r="5" fill="#C3D7D7" />
<circle cx="146" cy="103" r="5" fill="#C4D7D7" />
<circle cx="145" cy="103" r="5" fill="#C4D8D8" />
<circle cx="145" cy="102" r="5" fill="#C4D8D8" />
<circle cx="145" cy="102" r="5" fill="#C4D8D8" />
<circle cx="145" cy="101" r="5" fill="#C5D8D8" />
<circle cx="145" cy="101" r="5" fill="#C5D8D8" />
<circle cx="145" cy="101" r="5" fill="#C5D9D9" />
<circle cx="145" cy="100" r="5" fill="#C6D9D9" />
<circle cx="145" cy="100" r="5" fill="#C6D9D9" />
<circle cx="145" cy="99" r="5" fill="#C6D9D9" />
<circle cx="145" cy="99" r="5" fill="#C7D9D9" />
<circle cx="145" cy="99" r="5" fill="#C7DADA" />
<circle cx="145" cy="98" r="5" fill="#C7DADA" />
<circle cx="146" cy="98" r="5" fill="#C8DADA" />
<circle cx="146" cy="98" r="5" fill="#C8DADA" />
<circle cx="146" cy="97" r="5" fill="#C8DADA" />
<circle cx="146" cy="97" r="5" fill="#C8DBDB" />
<circle cx="146" cy="97" r="5" fill="#C9DBDB" />
<circle cx="147" cy="97" r="5" fill="#C9DBDB" />
<circle cx="147" cy="96" r="5" fill="#C9DBDB" />
<circle cx="147" cy="96" r="5" fill="#CADBDB" />
<circle cx="148" cy="96" r="5" fill="#CADCDC" />
<circle cx="148" cy="96" r="5" fill="#CADCDC" />
<circle cx="148" cy="96" r="5" fill="#CBDCDC" />
<circle cx="149" cy="96" r="4" fill="#CBDCDC" />
<circle cx="149" cy="96" r="4" fill="#CBDCDC" />
<circle cx="149" cy="96" r="4" fill="#CBDDDD" />
<circle cx="150" cy="96" r="4" fill="#CCDDDD" />
<circle cx="150" cy="96" r="4" fill="#CCDDDD" />
<circle cx="150" cy="96" r="4" fill="#CCDDDD" />
<circle cx="150" cy="96" r="4" fill="#CDDDDD" />
<circle cx="151" cy="96" r="4" fill="#CDDEDE" />
<circle cx="151" cy="96" r="4" fill="#CDDEDE" />
<circle cx="151" cy="96" r="4" fill="#CEDEDE" />
<circle cx="152" cy="96" r="4" fill="#CEDEDE" />
<circle cx="152" cy="96" r="4" fill="#CEDEDE" />
<circle cx="152" cy="97" r="4" fill="#CFDFDF" />
<circle cx="152" cy="97" r="4" fill="#CFDFDF" />
<circle cx="153" cy="97" r="4" fill="#CFDFDF" />
<circle cx="153" cy="97" r="4" fill="#CFDFDF" />
<circle cx="153" cy="97" r="4" fill="#D0E0E0" />
<circle cx="153" cy="98" r="4" fill="#D0E0E0" />
<circle cx="153" cy="98" r="4" fill="#D0E0E0" />
<circle cx="153" cy="98" r="4" fill="#D1E0E0" />
<circle cx="154" cy="98" r="4" fill="#D1E0E0" />
<circle cx="154" cy="99" r="4" fill="#D1E1E1" />
<circle cx="154" cy="99" r="4" fill="#D2E1E1" />
<circle cx="154" cy="99" r="4" fill="#D2E1E1" />
<circle cx="154" cy="100" r="4" fill="#D2E1E1" />
<circle cx="154" cy="100" r="4" fill="#D3E1E1" />
<circle cx="154" cy="100" r="4" fill="#D3E2E2" />
<circle cx="154" cy="100" r="4" fill="#D3E2E2" />
<circle cx="154" cy="101" r="4" fill="#D3E2E2" />
<circle cx="154" cy="101" r="4" fill="#D4E2E2" />
<circle cx="153" cy="101" r="4" fill="#D4E2E2" />
<circle cx="153" cy="101" r="4" fill="#D4E3E3" />
<circle cx="153" cy="102" r="4" fill="#D5E3E3" />
<circle cx="153" cy="102" r="4" fill="#D5E3E3" />
<circle cx="153" cy="102" r="4" fill="#D5E3E3" />
<circle cx="153" cy="102" r="4" fill="#D6E3E3" />
<circle cx="152" cy="103" r="3" fill="#D6E4E4" />
<circle cx="152" cy="103" r="3" fill="#D6E4E4" />
<circle cx="152" cy="103" r="3" fill="#D7E4E4" />
<circle cx="152" cy="103" r="3" fill="#D7E4E4" />
<circle cx="152" cy="103" r="3" fill="#D7E4E4" />
<circle cx="151" cy="103" r="3" fill="#D7E5E5" />
<circle cx="151" cy="103" r="3" fill="#D8E5E5" />
<circle cx="151" cy="103" r="3" fill="#D8E5E5" />
<circle cx="151" cy="103" r="3" fill="#D8E5E5" />
<circle cx="150" cy="103" r="3" fill="#D9E5E5" />
<circle cx="150" cy="103" r="3" fill="#D9E6E6" />
<circle cx="150" cy="103" r="3" fill="#D9E6E6" />
<circle cx="150" cy="103" r="3" fill="#DAE6E6" />
<circle cx="149" cy="103" r="3" fill="#DAE6E6" />
<circle cx="149" cy="103" r="3" fill="#DAE6E6" />
<circle cx="149" cy="103" r="3" fill="#DBE7E7" />
<circle cx="149" cy="103" r="3" fill="#DBE7E7" />
<circle cx="148" cy="103" r="3" fill="#DBE7E7" />
<circle cx="148" cy="103" r="3" fill="#DBE7E7" />
<circle cx="148" cy="102" r="3" fill="#DCE7E7" />
<circle cx="148" cy="102" r="3" fill="#DCE8E8" />
<circle cx="148" cy="102" r="3" fill="#DCE8E8" />
<circle cx="148" cy="102" r="3" fill="#DDE8E8" />
<circle cx="148" cy="102" r="3" fill="#DDE8E8" />
<circle cx="147" cy="101" r="3" fill="#DDE9E9" />
<circle cx="147" cy="101" r="3" fill="#DEE9E9" />
<circle cx="147" cy="101" r="3" fill="#DEE9E9" />
<circle cx="147" cy="101" r="3" fill="#DEE9E9" />
<circle cx="147" cy="101" r="3" fill="#DEE9E9" />
<circle cx="147" cy="100" r="3" fill="#DFEAEA" />
<circle cx="147" cy="100" r="3" fill="#DFEAEA" />
<circle cx="147" cy="100" r="3" fill="#DFEAEA" />
<circle cx="147" cy="100" r="3" fill="#E0EAEA" />
<circle cx="147" cy="100" r="3" fill="#E0EAEA" />
<circle cx="147" cy="99" r="3" fill="#E0EBEB" />
<circle cx="147" cy="99" r="3" fill="#E1EBEB" />
<circle cx="147" cy="99" r="3" fill="#E1EBEB" />
<circle cx="148" cy="99" r="3" fill="#E1EBEB" />
<circle cx="148" cy="99" r="3" fill="#E2EBEB" />
<circle cx="148" cy="98" r="3" fill="#E2ECEC" />
<circle cx="148" cy="98" r="3" fill="#E2ECEC" />
<circle cx="148" cy="98" r="3" fill="#E2ECEC" />
<circle cx="148" cy="98" r="3" fill="#E3ECEC" />
<circle cx="148" cy="98" r="3" fill="#E3ECEC" />
<circle cx="149" cy="98" r="3" fill="#E3EDED" />
<circle cx="149" cy="98" r="3" fill="#E4EDED" />
<circle cx="149" cy="98" r="3" fill="#E4EDED" />
<circle cx="149" cy="98" r="3" fill="#E4EDED" />
<circle cx="149" cy="98" r="2" fill="#E5EDED" />
<circle cx="149" cy="98" r="2" fill="#E5EEEE" />
<circle cx="150" cy="98" r="2" fill="#E5EEEE" />
<circle cx="150" cy="98" r="2" fill="#E6EEEE" />
<circle cx="150" cy="98" r="2" fill="#E6EEEE" />
<circle cx="150" cy="98" r="2" fill="#E6EEEE" />
<circle cx="150" cy="98" r="2" fill="#E6EFEF" />
<circle cx="151" cy="98" r="2" fill="#E7EFEF" />
<circle cx="151" cy="98" r="2" fill="#E7EFEF" />
<circle cx="151" cy="98" r="2" fill="#E7EFEF" />
<circle cx="151" cy="98" r="2" fill="#E8EFEF" />
<circle cx="151" cy="98" r="2" fill="#E8F0F0" />
<circle cx="151" cy="98" r="2" fill="#E8F0F0" />
<circle cx="151" cy="98" r="2" fill="#E9F0F0" />
<circle cx="152" cy="98" r="2" fill="#E9F0F0" />
<circle cx="152" cy="98" r="2" fill="#E9F0F0" />
<circle cx="152" cy="99" r="2" fill="#EAF1F1" />
<circle cx="152" cy="99" r="2" fill="#EAF1F1" />
<circle cx="152" cy="99" r="2" fill="#EAF1F1" />
<circle cx="152" cy="99" r="2" fill="#EAF1F1" />
<circle cx="152" cy="99" r="2" fill="#EBF2F2" />
<circle cx="152" cy="99" r="2" fill="#EBF2F2" />
<circle cx="152" cy="100" r="2" fill="#EBF2F2" />
<circle cx="152" cy="100" r="2" fill="#ECF2F2" />
<circle cx="152" cy="100" r="2" fill="#ECF2F2" />
<circle cx="152" cy="100" r="2" fill="#ECF3F3" />
<circle cx="152" cy="100" r="2" fill="#EDF3F3" />
<circle cx="152" cy="100" r="2" fill="#EDF3F3" />
<circle cx="152" cy="101" r="2" fill="#EDF3F3" />
<circle cx="152" cy="101" r="2" fill="#EEF3F3" />
<circle cx="152" cy="101" r="2" fill="#EEF4F4" />
<circle cx="152" cy="101" r="2" fill="#EEF4F4" />
<circle cx="152" cy="101" r="2" fill="#EEF4F4" />
<circle cx="152" cy="101" r="2" fill="#EFF4F4" />
<circle cx="152" cy="101" r="2" fill="#EFF4F4" />
<circle cx="151" cy="101" r="2" fill="#EFF5F5" />
<circle cx="151" cy="101" r="2" fill="#F0F5F5" />
<circle cx="151" cy="102" r="2" fill="#F0F5F5" />
<circle cx="151" cy="102" r="2" fill="#F0F5F5" />
<circle cx="151" cy="102" r="2" fill="#F1F5F5" />
<circle cx="151" cy="102" r="2" fill="#F1F6F6" />
<circle cx="151" cy="102" r="2" fill="#F1F6F6" />
<circle cx="150" cy="102" r="2" fill="#F2F6F6" />
<circle cx="150" cy="102" r="2" fill="#F2F6F6" />
<circle cx="150" cy="102" r="2" fill="#F2F6F6" />
<circle cx="150" cy="102" r="2" fill="#F2F7F7" />
<circle cx="150" cy="102" r="2" fill="#F3F7F7" />
<circle cx="150" cy="102" r="2" fill="#F3F7F7" />
<circle cx="150" cy="102" r="2" fill="#F3F7F7" />
<circle cx="150" cy="102" r="2" fill="#F4F7F7" />
<circle cx="149" cy="102" r="2" fill="#F4F8F8" />
<circle cx="149" cy="102" r="2" fill="#F4F8F8" />
<circle cx="149" cy="102" r="2" fill="#F5F8F8" />
<circle cx="149" cy="101" r="2" fill="#F5F8F8" />
<circle cx="149" cy="101" r="2" fill="#F5F8F8" />
<circle cx="149" cy="101" r="2" fill="#F5F9F9" />
<circle cx="149" cy="101" r="2" fill="#F6F9F9" />
<circle cx="149" cy="101" r="2" fill="#F6F9F9" />
<circle cx="149" cy="101" r="2" fill="#F6F9F9" />
<circle cx="149" cy="101" r="2" fill="#F7F9F9" />
<circle cx="149" cy="101" r="2" fill="#F7FAFA" />
<circle cx="149" cy="101" r="2" fill="#F7FAFA" />
<circle cx="148" cy="101" r="2" fill="#F8FAFA" />
<circle cx="148" cy="100" r="2" fill="#F8FAFA" />
<circle cx="148" cy="100" r="2" fill="#F8FBFB" />
<circle cx="148" cy="100" r="2" fill="#F9FBFB" />
<circle cx="148" cy="100" r="2" fill="#F9FBFB" />
<circle cx="148" cy="100" r="2" fill="#F9FBFB" />
<circle cx="148" cy="100" r="2" fill="#F9FBFB" />
<circle cx="148" cy="100" r="2" fill="#FAFCFC" />
<circle cx="149" cy="100" r="2" fill="#FAFCFC" />
<circle cx="149" cy="99" r="2" fill="#FAFCFC" />
<circle cx="149" cy="99" r="2" fill="#FBFCFC" />
<circle cx="149" cy="99" r="1" fill="#FBFCFC" />
<circle cx="149" cy="99" r="1" fill="#FBFDFD" />
<circle cx="149" cy="99" r="1" fill="#FCFDFD" />
<circle cx="149" cy="99" r="1" fill="#FCFDFD" />
<circle cx="149" cy="99" r="1" fill="#FCFDFD" />
<circle cx="149" cy="99" r="1" fill="#FDFDFD" />
<circle cx="149" cy="99" r="1" fill="#FDFEFE" />
<circle cx="149" cy="99" r="1" fill="#FDFEFE" />
<circle cx="149" cy="99" r="1" fill="#FDFEFE" />
<circle cx="149" cy="99" r="1" fill="#FEFEFE" />
<circle cx="150" cy="99" r="1" fill="#FEFEFE" />
<circle cx="150" cy="99" r="1" fill="#FEFFFF" />
<circle cx="150" cy="99" r="1" fill="#FFFFFF" />
<circle cx="150" cy="99" r="1" fill="#FFFFFF" />

  <text x="150" y="110" font-size="24" text-anchor="middle" fill="navy">NAV</text>
</svg>